<svg width="4255" height="1402" xmlns="http://www.w3.org/2000/svg" xmlns:xlink="http://www.w3.org/1999/xlink" xml:space="preserve" overflow="hidden"><g transform="translate(-14 -298)"><path d="M1367.5 675.838C1367.5 567.956 1454.96 480.5 1562.84 480.5L2427.16 480.5C2535.04 480.5 2622.5 567.956 2622.5 675.838L2622.5 1457.16C2622.5 1565.04 2535.04 1652.5 2427.16 1652.5L1562.84 1652.5C1454.96 1652.5 1367.5 1565.04 1367.5 1457.16Z" stroke="#172C51" stroke-width="4.58333" stroke-miterlimit="8" fill="none" fill-rule="evenodd"/><path d="M16.5 780.837C16.5 686.21 93.2102 609.5 187.837 609.5L1089.16 609.5C1183.79 609.5 1260.5 686.21 1260.5 780.837L1260.5 1466.16C1260.5 1560.79 1183.79 1637.5 1089.16 1637.5L187.837 1637.5C93.2102 1637.5 16.5 1560.79 16.5 1466.16Z" stroke="#825AA1" stroke-width="4.58333" stroke-miterlimit="8" fill="#825AA1" fill-rule="evenodd"/><rect x="197" y="792" width="880" height="623" fill="#A6A6A6"/><path d="M2771.5 809.17C2771.5 711.046 2851.05 631.5 2949.17 631.5L4088.83 631.5C4186.95 631.5 4266.5 711.046 4266.5 809.17L4266.5 1519.83C4266.5 1617.95 4186.95 1697.5 4088.83 1697.5L2949.17 1697.5C2851.05 1697.5 2771.5 1617.95 2771.5 1519.83Z" stroke="#172C51" stroke-width="4.58333" stroke-miterlimit="8" fill="#A9D18E" fill-rule="evenodd"/><rect x="2962" y="792" width="1117" height="605" fill="#FFFFFF"/><text font-family="Calibri,Calibri_MSFontService,sans-serif" font-weight="400" font-size="83" transform="matrix(1 0 0 1 3375.72 1043)">Property</text><text font-family="Calibri,Calibri_MSFontService,sans-serif" font-weight="400" font-size="83" transform="matrix(1 0 0 1 496.183 1004)">Property</text><text font-family="Calibri,Calibri_MSFontService,sans-serif" font-weight="400" font-size="83" transform="matrix(1 0 0 1 510.595 401)">Target</text><text font-family="Calibri,Calibri_MSFontService,sans-serif" font-weight="400" font-size="83" transform="matrix(1 0 0 1 3432.08 401)">Source</text><path d="M2957.23 884.25 1096.41 874.063 1096.44 867.188 2957.27 877.375ZM1100.92 884.4 1073.5 870.5 1101.07 856.901Z"/><path d="M0.0250449-3.43741 1864.3 10.1456 1864.25 17.0205-0.0250449 3.43741ZM1859.79-0.199995 1887.19 13.75 1859.59 27.2993Z" transform="matrix(1 0 0 -1 1076.5 1272.25)"/><path d="M22.9302-3.35429 1871.16 3.35435 1871.14 10.2293 22.9052 3.52066ZM27.4499 13.8497 0 0 27.5497-13.6501ZM1866.61-6.97473 1894.06 6.875 1866.51 20.5251Z" transform="matrix(1 0 0 -1 1076.5 990.375)"/><rect x="1814" y="803" width="361" height="134" fill="#FFFFFF"/><text font-family="Calibri,Calibri_MSFontService,sans-serif" font-weight="400" font-size="83" transform="matrix(1 0 0 1 1846.56 897)">One way</text><rect x="1814" y="934" width="361" height="133" fill="#FFFFFF"/><text font-family="Calibri,Calibri_MSFontService,sans-serif" font-weight="400" font-size="83" transform="matrix(1 0 0 1 1846.56 1028)">Two way</text><rect x="1669" y="1206" width="719" height="133" fill="#FFFFFF"/><text font-family="Calibri,Calibri_MSFontService,sans-serif" font-weight="400" font-size="83" transform="matrix(1 0 0 1 1702.19 1299)">One way to Source</text><path d="M2956.31 1132.58 2947.14 1132.57 2947.15 1130.27 2956.31 1130.29ZM2940.27 1132.55 2931.1 1132.54 2931.11 1130.25 2940.27 1130.26ZM2924.23 1132.52 2915.06 1132.51 2915.06 1130.22 2924.23 1130.23ZM2908.19 1132.5 2899.02 1132.48 2899.02 1130.19 2908.19 1130.2ZM2892.14 1132.47 2882.98 1132.45 2882.98 1130.16 2892.15 1130.17ZM2876.1 1132.44 2866.94 1132.42 2866.94 1130.13 2876.11 1130.14ZM2860.06 1132.41 2850.89 1132.39 2850.9 1130.1 2860.06 1130.12ZM2844.02 1132.38 2834.85 1132.36 2834.86 1130.07 2844.02 1130.09ZM2827.98 1132.35 2818.81 1132.33 2818.81 1130.04 2827.98 1130.06ZM2811.94 1132.32 2802.77 1132.3 2802.77 1130.01 2811.94 1130.03ZM2795.89 1132.29 2786.73 1132.27 2786.73 1129.98 2795.9 1130ZM2779.85 1132.26 2770.69 1132.24 2770.69 1129.95 2779.86 1129.97ZM2763.81 1132.23 2754.64 1132.21 2754.65 1129.92 2763.81 1129.94ZM2747.77 1132.2 2738.6 1132.19 2738.61 1129.89 2747.77 1129.91ZM2731.73 1132.17 2722.56 1132.16 2722.56 1129.86 2731.73 1129.88ZM2715.69 1132.14 2706.52 1132.13 2706.52 1129.83 2715.69 1129.85ZM2699.64 1132.11 2690.48 1132.1 2690.48 1129.81 2699.65 1129.82ZM2683.6 1132.08 2674.44 1132.07 2674.44 1129.78 2683.61 1129.79ZM2667.56 1132.06 2658.39 1132.04 2658.4 1129.75 2667.57 1129.76ZM2651.52 1132.03 2642.35 1132.01 2642.36 1129.72 2651.52 1129.73ZM2635.48 1132 2626.31 1131.98 2626.32 1129.69 2635.48 1129.7ZM2619.44 1131.97 2610.27 1131.95 2610.27 1129.66 2619.44 1129.68ZM2603.39 1131.94 2594.23 1131.92 2594.23 1129.63 2603.4 1129.65ZM2587.35 1131.91 2578.19 1131.89 2578.19 1129.6 2587.36 1129.62ZM2571.31 1131.88 2562.14 1131.86 2562.15 1129.57 2571.32 1129.59ZM2555.27 1131.85 2546.1 1131.83 2546.11 1129.54 2555.27 1129.56ZM2539.23 1131.82 2530.06 1131.8 2530.07 1129.51 2539.23 1129.53ZM2523.19 1131.79 2514.02 1131.77 2514.02 1129.48 2523.19 1129.5ZM2507.14 1131.76 2497.98 1131.75 2497.98 1129.45 2507.15 1129.47ZM2491.1 1131.73 2481.94 1131.72 2481.94 1129.42 2491.11 1129.44ZM2475.06 1131.7 2465.89 1131.69 2465.9 1129.4 2475.07 1129.41ZM2459.02 1131.67 2449.85 1131.66 2449.86 1129.37 2459.02 1129.38ZM2442.98 1131.64 2433.81 1131.63 2433.82 1129.34 2442.98 1129.35ZM2426.94 1131.62 2417.77 1131.6 2417.77 1129.31 2426.94 1129.32ZM2410.89 1131.59 2401.73 1131.57 2401.73 1129.28 2410.9 1129.29ZM2394.85 1131.56 2385.69 1131.54 2385.69 1129.25 2394.86 1129.27ZM2378.81 1131.53 2369.64 1131.51 2369.65 1129.22 2378.82 1129.24ZM2362.77 1131.5 2353.6 1131.48 2353.61 1129.19 2362.77 1129.21ZM2346.73 1131.47 2337.56 1131.45 2337.57 1129.16 2346.73 1129.18ZM2330.69 1131.44 2321.52 1131.42 2321.52 1129.13 2330.69 1129.15ZM2314.64 1131.41 2305.48 1131.39 2305.48 1129.1 2314.65 1129.12ZM2298.6 1131.38 2289.44 1131.36 2289.44 1129.07 2298.61 1129.09ZM2282.56 1131.35 2273.39 1131.33 2273.4 1129.04 2282.57 1129.06ZM2266.52 1131.32 2257.35 1131.31 2257.36 1129.01 2266.52 1129.03ZM2250.48 1131.29 2241.31 1131.28 2241.32 1128.98 2250.48 1129ZM2234.44 1131.26 2225.27 1131.25 2225.27 1128.96 2234.44 1128.97ZM2218.39 1131.23 2209.23 1131.22 2209.23 1128.93 2218.4 1128.94ZM2202.35 1131.2 2193.19 1131.19 2193.19 1128.9 2202.36 1128.91ZM2186.31 1131.18 2177.14 1131.16 2177.15 1128.87 2186.32 1128.88ZM2170.27 1131.15 2161.1 1131.13 2161.11 1128.84 2170.27 1128.85ZM2154.23 1131.12 2145.06 1131.1 2145.07 1128.81 2154.23 1128.83ZM2138.19 1131.09 2129.02 1131.07 2129.02 1128.78 2138.19 1128.8ZM2122.14 1131.06 2112.98 1131.04 2112.98 1128.75 2122.15 1128.77ZM2106.1 1131.03 2096.94 1131.01 2096.94 1128.72 2106.11 1128.74ZM2090.06 1131 2080.89 1130.98 2080.9 1128.69 2090.07 1128.71ZM2074.02 1130.97 2064.85 1130.95 2064.86 1128.66 2074.02 1128.68ZM2057.98 1130.94 2048.81 1130.92 2048.82 1128.63 2057.98 1128.65ZM2041.94 1130.91 2032.77 1130.89 2032.77 1128.6 2041.94 1128.62ZM2025.89 1130.88 2016.73 1130.87 2016.73 1128.57 2025.9 1128.59ZM2009.85 1130.85 2000.69 1130.84 2000.69 1128.54 2009.86 1128.56ZM1993.81 1130.82 1984.64 1130.81 1984.65 1128.52 1993.82 1128.53ZM1977.77 1130.79 1968.6 1130.78 1968.61 1128.49 1977.77 1128.5ZM1961.73 1130.77 1952.56 1130.75 1952.57 1128.46 1961.73 1128.47ZM1945.69 1130.74 1936.52 1130.72 1936.52 1128.43 1945.69 1128.44ZM1929.64 1130.71 1920.48 1130.69 1920.48 1128.4 1929.65 1128.41ZM1913.6 1130.68 1904.44 1130.66 1904.44 1128.37 1913.61 1128.39ZM1897.56 1130.65 1888.39 1130.63 1888.4 1128.34 1897.57 1128.36ZM1881.52 1130.62 1872.35 1130.6 1872.36 1128.31 1881.52 1128.33ZM1865.48 1130.59 1856.31 1130.57 1856.32 1128.28 1865.48 1128.3ZM1849.44 1130.56 1840.27 1130.54 1840.27 1128.25 1849.44 1128.27ZM1833.39 1130.53 1824.23 1130.51 1824.23 1128.22 1833.4 1128.24ZM1817.35 1130.5 1808.19 1130.48 1808.19 1128.19 1817.36 1128.21ZM1801.31 1130.47 1792.14 1130.45 1792.15 1128.16 1801.32 1128.18ZM1785.27 1130.44 1776.1 1130.43 1776.11 1128.13 1785.27 1128.15ZM1769.23 1130.41 1760.06 1130.4 1760.07 1128.1 1769.23 1128.12ZM1753.19 1130.38 1744.02 1130.37 1744.02 1128.08 1753.19 1128.09ZM1737.14 1130.35 1727.98 1130.34 1727.98 1128.05 1737.15 1128.06ZM1721.1 1130.33 1711.94 1130.31 1711.94 1128.02 1721.11 1128.03ZM1705.06 1130.3 1695.89 1130.28 1695.9 1127.99 1705.07 1128ZM1689.02 1130.27 1679.85 1130.25 1679.86 1127.96 1689.02 1127.97ZM1672.98 1130.24 1663.81 1130.22 1663.82 1127.93 1672.98 1127.95ZM1656.94 1130.21 1647.77 1130.19 1647.77 1127.9 1656.94 1127.92ZM1640.89 1130.18 1631.73 1130.16 1631.73 1127.87 1640.9 1127.89ZM1624.85 1130.15 1615.69 1130.13 1615.69 1127.84 1624.86 1127.86ZM1608.81 1130.12 1599.64 1130.1 1599.65 1127.81 1608.82 1127.83ZM1592.77 1130.09 1583.6 1130.07 1583.61 1127.78 1592.77 1127.8ZM1576.73 1130.06 1567.56 1130.04 1567.57 1127.75 1576.73 1127.77ZM1560.69 1130.03 1551.52 1130.02 1551.52 1127.72 1560.69 1127.74ZM1544.64 1130 1535.48 1129.99 1535.48 1127.69 1544.65 1127.71ZM1528.6 1129.97 1519.44 1129.96 1519.44 1127.66 1528.61 1127.68ZM1512.56 1129.94 1503.39 1129.93 1503.4 1127.64 1512.57 1127.65ZM1496.52 1129.91 1487.35 1129.9 1487.36 1127.61 1496.52 1127.62ZM1480.48 1129.89 1471.31 1129.87 1471.32 1127.58 1480.48 1127.59ZM1464.44 1129.86 1455.27 1129.84 1455.27 1127.55 1464.44 1127.56ZM1448.4 1129.83 1439.23 1129.81 1439.23 1127.52 1448.4 1127.53ZM1432.35 1129.8 1423.19 1129.78 1423.19 1127.49 1432.36 1127.51ZM1416.31 1129.77 1407.14 1129.75 1407.15 1127.46 1416.32 1127.48ZM1400.27 1129.74 1391.1 1129.72 1391.11 1127.43 1400.27 1127.45ZM1384.23 1129.71 1375.06 1129.69 1375.07 1127.4 1384.23 1127.42ZM1368.19 1129.68 1359.02 1129.66 1359.02 1127.37 1368.19 1127.39ZM1352.14 1129.65 1342.98 1129.63 1342.98 1127.34 1352.15 1127.36ZM1336.1 1129.62 1326.94 1129.6 1326.94 1127.31 1336.11 1127.33ZM1320.06 1129.59 1310.89 1129.58 1310.9 1127.28 1320.07 1127.3ZM1304.02 1129.56 1294.85 1129.55 1294.86 1127.25 1304.02 1127.27ZM1287.98 1129.53 1278.81 1129.52 1278.82 1127.22 1287.98 1127.24ZM1271.94 1129.5 1262.77 1129.49 1262.77 1127.2 1271.94 1127.21ZM1255.9 1129.47 1246.73 1129.46 1246.73 1127.17 1255.9 1127.18ZM1239.85 1129.45 1230.69 1129.43 1230.69 1127.14 1239.86 1127.15ZM1223.81 1129.42 1214.65 1129.4 1214.65 1127.11 1223.82 1127.12ZM1207.77 1129.39 1198.6 1129.37 1198.61 1127.08 1207.78 1127.09ZM1191.73 1129.36 1182.56 1129.34 1182.57 1127.05 1191.73 1127.07ZM1175.69 1129.33 1166.52 1129.31 1166.53 1127.02 1175.69 1127.04ZM1159.65 1129.3 1150.48 1129.28 1150.48 1126.99 1159.65 1127.01ZM1143.6 1129.27 1134.44 1129.25 1134.44 1126.96 1143.61 1126.98ZM1127.56 1129.24 1118.4 1129.22 1118.4 1126.93 1127.57 1126.95ZM1111.52 1129.21 1102.36 1129.19 1102.36 1126.9 1111.53 1126.92ZM1103.47 1141.8 1076 1128 1103.53 1114.3Z"/><rect x="1814" y="1068" width="426" height="133" fill="#FFFFFF"/><text font-family="Calibri,Calibri_MSFontService,sans-serif" font-weight="400" font-size="83" transform="matrix(1 0 0 1 1846.56 1162)">One time</text><text font-family="Calibri,Calibri_MSFontService,sans-serif" font-weight="400" font-size="83" transform="matrix(1 0 0 1 1672.47 401)">Binding Object</text></g></svg>